<svg width="14" height="14" viewBox="0 0 14 14" fill="none" xmlns="http://www.w3.org/2000/svg">
<path d="M7 0C5.14348 1.16032e-07 3.36301 0.737498 2.05025 2.05025C0.737498 3.36301 1.16032e-07 5.14348 0 7C1.16032e-07 8.85652 0.737498 10.637 2.05025 11.9497C3.36301 13.2625 5.14348 14 7 14C8.85652 14 10.637 13.2625 11.9497 11.9497C13.2625 10.637 14 8.85652 14 7C14 5.14348 13.2625 3.36301 11.9497 2.05025C10.637 0.737498 8.85652 1.16032e-07 7 0V0ZM7 1.24585C7.24238 1.24585 7.4375 1.40723 7.4375 1.60773V6.5625H11.2549C11.461 6.5625 11.6271 6.75763 11.6271 7C11.6271 7.24238 11.461 7.4375 11.2549 7.4375H7.29608C7.2182 7.49691 7.11478 7.53406 7 7.53406C6.84202 7.53406 6.70518 7.46473 6.6283 7.36145C6.53043 7.28279 6.46594 7.15053 6.46594 7C6.46594 6.88716 6.50327 6.78563 6.5625 6.70819V1.60773C6.5625 1.40723 6.75763 1.24585 7 1.24585Z" fill="#D0D9DE"/>
</svg>
